<svg width="41" height="40" viewBox="0 0 41 40" fill="none" xmlns="http://www.w3.org/2000/svg">
<path d="M20.6282 0.709915C25.118 0.732967 29.6079 0.744784 34.0977 0.78469C36.1572 0.803701 37.8444 1.62704 39.0638 3.29913C41.7115 6.92815 39.5891 12.0721 35.1515 12.8023C34.7212 12.8731 34.2828 12.9046 33.8472 12.9023C24.9912 12.8625 16.1351 12.817 7.27898 12.7687C4.19386 12.7528 1.81503 10.9203 1.12735 8.0458C0.337896 4.74365 2.58363 1.32519 5.9244 0.766452C6.38563 0.69017 6.86073 0.647655 7.32716 0.65005C11.7608 0.664387 16.1945 0.68996 20.6282 0.712724L20.6282 0.709915Z" fill="white"/>
<path d="M17.2002 16.6575C19.9284 16.6715 22.6568 16.6518 25.3819 16.7108C27.93 16.766 29.8318 17.9501 30.9157 20.2675C32.5916 23.8551 30.3305 28.0798 26.4329 28.7171C26.0139 28.7852 25.5867 28.8223 25.1624 28.8201C20.9647 28.807 16.767 28.7854 12.5694 28.7554C12.2856 28.754 12.1195 28.8178 11.9664 29.0867C11.3455 30.1735 11.1203 31.3606 11.1196 32.5769C11.1188 33.8187 11.2614 35.0611 11.3084 36.3029C11.333 36.9941 11.3547 37.6993 11.2528 38.3786C11.1334 39.1787 10.3621 39.4781 9.65888 39.07C7.53546 37.8399 6.06681 36.0232 5.0019 33.8518C4.02311 31.8523 3.46358 29.7256 3.14051 27.5329C2.90163 25.9107 2.79755 24.278 2.83691 22.6376C2.9078 19.7726 4.79678 17.4254 7.58737 16.788C8.09653 16.6726 8.63055 16.6304 9.15317 16.6303C11.8365 16.6272 14.5198 16.6494 17.2001 16.6632L17.2002 16.6575Z" fill="white"/>
</svg>
